<?xml version="1.0" encoding="UTF-8"?>
<svg xmlns="http://www.w3.org/2000/svg" xmlns:xlink="http://www.w3.org/1999/xlink" width="24pt" height="24pt" viewBox="0 0 24 24" version="1.1">
<g id="surface1408775">
<path style="fill-rule:nonzero;fill:rgb(80%,80%,80%);fill-opacity:1;stroke-width:10;stroke-linecap:butt;stroke-linejoin:round;stroke:rgb(87.058824%,20.784314%,20.784314%);stroke-opacity:1;stroke-miterlimit:10;" d="M 172.00523 14.319068 L 172.00523 28.673086 L -0.00523045 28.673086 L -0.00523045 14.319068 Z M 172.00523 78.837851 L 172.00523 93.162149 L -0.00523045 93.162149 L -0.00523045 78.837851 Z M 172.00523 143.326914 L 172.00523 157.680932 L -0.00523045 157.680932 L -0.00523045 143.326914 Z M 172.00523 143.326914 " transform="matrix(0.131442,0,0,0.131442,0.696,0.696)"/>
<path style=" stroke:none;fill-rule:nonzero;fill:rgb(85.098039%,66.27451%,66.27451%);fill-opacity:1;" d="M 0.695312 2.578125 L 0.695312 4.464844 L 23.304688 4.464844 L 23.304688 2.578125 Z M 0.695312 11.058594 L 0.695312 12.941406 L 23.304688 12.941406 L 23.304688 11.058594 Z M 0.695312 19.535156 L 0.695312 21.421875 L 23.304688 21.421875 L 23.304688 19.535156 Z M 0.695312 19.535156 "/>
</g>
</svg>
